<?xml version="1.0" encoding="UTF-8"?>
<svg version="1.1" xmlns="http://www.w3.org/2000/svg" width="512" height="512">
<path d="M0 0 C1.01790619 0.00215515 2.03581238 0.0043103 3.08456421 0.00653076 C17.69363523 0.05620146 32.02575853 0.30709809 46.375 3.3125 C47.34985352 3.51117676 48.32470703 3.70985352 49.32910156 3.91455078 C97.7109774 14.03517194 141.69928269 35.9516877 177.375 70.3125 C178.3640332 71.26068604 178.3640332 71.26068604 179.37304688 72.22802734 C188.86130305 81.37247479 197.6012044 90.66984009 205.375 101.3125 C206.23306152 102.46355017 207.09113451 103.61459177 207.94921875 104.765625 C213.98736829 112.95680614 219.34595521 121.47054105 224.375 130.3125 C224.73948242 130.94430176 225.10396484 131.57610352 225.47949219 132.22705078 C247.08534998 169.97532572 256.85198095 212.74189997 256.6875 255.9375 C256.68534485 256.95540619 256.6831897 257.97331238 256.68096924 259.02206421 C256.63129854 273.63113523 256.38040191 287.96325853 253.375 302.3125 C253.07698486 303.77478027 253.07698486 303.77478027 252.77294922 305.26660156 C242.65232806 353.6484774 220.7358123 397.63678269 186.375 433.3125 C185.74287598 433.97185547 185.11075195 434.63121094 184.45947266 435.31054688 C175.31502521 444.79880305 166.01765991 453.5387044 155.375 461.3125 C154.22394983 462.17056152 153.07290823 463.02863451 151.921875 463.88671875 C143.73224019 469.92427396 135.22961724 475.30707302 126.375 480.3125 C125.66778809 480.7146875 124.96057617 481.116875 124.23193359 481.53125 C101.09654164 494.5566741 75.92537591 503.30551461 49.9375 508.625 C49.21860596 508.77235596 48.49971191 508.91971191 47.7590332 509.0715332 C33.08339502 511.86090125 18.55831162 512.66142619 3.64770508 512.62817383 C0.70811513 512.6250221 -2.2304558 512.64854926 -5.16992188 512.67382812 C-18.54306192 512.71848737 -31.43916711 511.51301542 -44.625 509.3125 C-46.33055054 509.03031616 -46.33055054 509.03031616 -48.07055664 508.74243164 C-91.33802759 500.97044532 -132.38793216 480.98345309 -165.625 452.3125 C-166.37007813 451.67828125 -167.11515625 451.0440625 -167.8828125 450.390625 C-181.38779833 438.57948485 -194.05918743 425.82889772 -204.625 411.3125 C-205.48149066 410.16255169 -206.33826433 409.01281411 -207.1953125 407.86328125 C-213.23534209 399.67315742 -218.61867614 391.16870382 -223.625 382.3125 C-224.0271875 381.60528809 -224.429375 380.89807617 -224.84375 380.16943359 C-237.8691741 357.03404164 -246.61801461 331.86287591 -251.9375 305.875 C-252.08485596 305.15610596 -252.23221191 304.43721191 -252.3840332 303.6965332 C-255.35789088 288.05024391 -255.99800362 272.57681954 -255.9375 256.6875 C-255.93534485 255.66959381 -255.9331897 254.65168762 -255.93096924 253.60293579 C-255.88129854 238.99386477 -255.63040191 224.66174147 -252.625 210.3125 C-252.42632324 209.33764648 -252.22764648 208.36279297 -252.02294922 207.35839844 C-241.90232806 158.9765226 -219.9858123 114.98821731 -185.625 79.3125 C-184.99287598 78.65314453 -184.36075195 77.99378906 -183.70947266 77.31445312 C-174.56502521 67.82619695 -165.26765991 59.0862956 -154.625 51.3125 C-153.47394983 50.45443848 -152.32290823 49.59636549 -151.171875 48.73828125 C-142.98224019 42.70072604 -134.47961724 37.31792698 -125.625 32.3125 C-124.91778809 31.9103125 -124.21057617 31.508125 -123.48193359 31.09375 C-100.34654164 18.0683259 -75.17537591 9.31948539 -49.1875 4 C-48.46860596 3.85264404 -47.74971191 3.70528809 -47.0090332 3.5534668 C-31.36274391 0.57960912 -15.88931954 -0.06050362 0 0 Z " fill="#FF2147" transform="translate(255.625,-0.3125)"/>
<path d="M0 0 C1.37142242 -0.00899942 2.74283732 -0.01921259 4.11424255 -0.03053284 C7.80893826 -0.05682307 11.503425 -0.06405755 15.19820523 -0.0659802 C17.51692842 -0.0681257 19.83559997 -0.07455501 22.15431023 -0.08247185 C30.27348015 -0.1101615 38.39250318 -0.12248609 46.51171875 -0.12011719 C54.03096977 -0.11831912 61.54957219 -0.14990744 69.06865937 -0.19734818 C75.56340655 -0.23683743 82.05794412 -0.25265788 88.55281013 -0.25075096 C92.41442781 -0.24999331 96.27546878 -0.25813281 100.1369648 -0.29028511 C123.27918174 -0.46961718 142.59200118 0.64320163 160.25170898 17.31079102 C169.87651044 27.45846901 176.02704983 40.65833123 176.17871094 54.80175781 C176.19796379 56.37445686 176.19796379 56.37445686 176.21760559 57.97892761 C176.22499252 59.10293472 176.23237946 60.22694183 176.23999023 61.38500977 C176.24806198 62.55280472 176.25613373 63.72059967 176.26445007 64.92378235 C176.27826695 67.39416022 176.28899979 69.86455698 176.296875 72.33496094 C176.30839029 74.85161971 176.3288347 77.36825415 176.35839844 79.88476562 C176.40122035 83.53084835 176.41726536 87.17620629 176.42749023 90.82250977 C176.44499832 91.93639572 176.46250641 93.05028168 176.48054504 94.19792175 C176.45278069 104.29769477 173.90286283 112.31548681 166.93920898 119.74438477 C160.85198075 125.05843683 154.20075011 126.58440301 146.30528259 126.58969116 C145.1175821 126.59626454 145.1175821 126.59626454 143.90588766 126.60297072 C141.24373392 126.61636101 138.58161328 126.62253816 135.91943359 126.62866211 C134.01405691 126.63656304 132.10868172 126.64483199 130.20330811 126.65344238 C123.9369042 126.67966866 117.67049359 126.69497299 111.40405273 126.70922852 C109.24635883 126.71458839 107.08866496 126.7199659 104.93097115 126.72536087 C95.95362267 126.74699258 86.97627599 126.7657281 77.99890804 126.77698326 C65.13786414 126.7932137 52.27712279 126.82636636 39.41619295 126.88338411 C30.371465 126.92211365 21.32681787 126.94161967 12.28200918 126.94690382 C6.88137486 126.9505538 1.48106317 126.96253733 -3.91948128 126.99500656 C-9.00440737 127.02513914 -14.08881648 127.03138039 -19.17381287 127.0196228 C-21.03536343 127.01940249 -22.89693834 127.02767257 -24.75840569 127.04527664 C-36.07972596 127.14647369 -44.4945418 126.74734775 -53.61938477 119.29516602 C-54.51850586 118.25102539 -54.51850586 118.25102539 -55.43579102 117.18579102 C-56.05325195 116.50000977 -56.67071289 115.81422852 -57.30688477 115.10766602 C-62.07662311 107.57302162 -62.44499674 99.88635904 -62.39672852 91.16625977 C-62.39959869 90.00886795 -62.40246887 88.85147614 -62.40542603 87.65901184 C-62.40745883 85.22091175 -62.40198413 82.78279505 -62.3894043 80.34472656 C-62.37338452 76.64488569 -62.38925816 72.94614448 -62.40844727 69.24633789 C-62.40646384 66.86547614 -62.40261812 64.48461506 -62.39672852 62.10375977 C-62.40280121 61.0127446 -62.4088739 59.92172943 -62.41513062 58.7976532 C-62.26725492 42.36006454 -56.65950806 28.49661388 -45.24829102 16.58422852 C-32.30003667 4.22044399 -17.62191744 -0.01901463 0 0 Z " fill="#FFFEFE" transform="translate(198.998291015625,269.564208984375)"/>
<path d="M0 0 C13.41845022 10.74153717 23.9611279 24.66761105 27 42 C28.85932645 61.26071501 24.78773812 79.1557022 12.875 94.6875 C5.22458054 103.58303807 -4.03548318 109.91235119 -15 114 C-15.77859375 114.31839844 -16.5571875 114.63679688 -17.359375 114.96484375 C-31.34961726 119.79905167 -49.86927533 118.53669588 -63.21875 112.55859375 C-80.17583138 104.02062404 -91.5388575 91.87842241 -98 74 C-98.52787109 72.80697266 -98.52787109 72.80697266 -99.06640625 71.58984375 C-104.29431151 57.08732831 -101.57684814 39.37253084 -95.5625 25.7421875 C-87.63780374 9.62609848 -74.68934445 -1.52813773 -58 -8 C-56.7934375 -8.48146484 -56.7934375 -8.48146484 -55.5625 -8.97265625 C-37.29003366 -15.11106291 -15.60701054 -10.87900441 0 0 Z " fill="#FFFEFE" transform="translate(293,127)"/>
</svg>
